<svg xmlns="http://www.w3.org/2000/svg" width="256" height="256"><path fill-opacity=".176" d="M0 128.004v128.004l128.25-.254 128.25-.254.254-127.75L257.008 0H0v128.004m.485.496c0 70.4.119 99.053.265 63.672.146-35.38.146-92.98 0-128C.604 29.153.485 58.1.485 128.5" fill="#1976D2" fill-rule="evenodd"/><path fill-opacity=".096" d="M27.384 1.412C14.085 4.639 4.019 15.137 1.123 28.799.337 32.508 0 62.7 0 129.368c0 105.73-.277 101.091 6.64 111.31 1.927 2.848 5.834 6.755 8.682 8.682C25.55 256.283 20.753 256 128 256s102.45.283 112.678-6.64c5.925-4.01 11.617-11.797 13.422-18.36.68-2.475 1.611-4.928 2.069-5.45 1.121-1.282 1.078-194.82-.044-194.127-.481.297-1.168-1.292-1.527-3.533-1.95-12.198-13.108-23.389-26.451-26.53-7.938-1.868-193.048-1.821-200.763.052M.481 129c0 53.625.121 75.563.269 48.75.148-26.813.148-70.688 0-97.5C.602 53.437.481 75.375.481 129m114.426-89.672c-4.139 2.186-11.028 10.885-9.684 12.229.291.291 1.43-.998 2.531-2.864 6.861-11.63 33.631-11.63 40.492 0 1.101 1.866 2.24 3.155 2.531 2.864 1.344-1.344-5.545-10.043-9.684-12.229-6.359-3.359-19.827-3.359-26.186 0m-39.745 28.67c-5.082 3.681-10.65 11.914-12.31 18.202-1.139 4.315-1.044 5.121 1.156 9.816 1.317 2.813 2.686 5.295 3.041 5.514.354.219.727-2.13.828-5.221.349-10.673 2.89-18.462 8.63-26.451C78.426 67.186 79.84 65 79.648 65c-.191 0-2.21 1.349-4.486 2.998m-15.574 43.767c-1.555 12.367-6.73 72.504-6.746 78.391-.033 12.105 7.173 22.461 18.606 26.739 5.673 2.122 6.582 2.151 59.171 1.88l53.408-.275 2.544-3c4.869-5.743 7.835-13.444 8.267-21.466.221-4.106-.629-23.54-1.889-43.188l-2.292-35.723-7.397 6.907c-4.068 3.799-10.065 8.529-13.328 10.511L164 136.145v7.427c0 6.525.222 7.428 1.826 7.428 1.004 0 2.804 1.042 4 2.314 1.881 2.003 2.174 3.463 2.174 10.845 0 11.209-.649 11.841-12.154 11.841-7.589 0-8.73-.247-10.672-2.314-1.833-1.952-2.174-3.491-2.174-9.813 0-6.911.22-7.71 2.805-10.186 1.542-1.478 3.342-2.687 4-2.687.785 0 1.195-1.925 1.195-5.607 0-4.931-.211-5.525-1.75-4.931-5.616 2.168-15.902 3.658-25.25 3.658s-19.634-1.49-25.25-3.658c-1.539-.594-1.75 0-1.75 4.931 0 3.962.385 5.607 1.313 5.607.722 0 2.522 1.262 4 2.805 2.429 2.535 2.687 3.526 2.687 10.325 0 6.569-.293 7.797-2.314 9.696-2.003 1.881-3.463 2.174-10.845 2.174C84.632 176 84 175.351 84 163.846c0-7.589.247-8.73 2.314-10.672 1.273-1.196 3.073-2.174 4-2.174 1.428 0 1.686-1.124 1.686-7.358v-7.358l-5.958-3.677c-7.739-4.777-16.322-12.651-21.627-19.842l-4.231-5.736-.596 4.736M35 178c-1.764 1.764-1.999 3.329-1.995 13.25.005 9.97.267 11.683 2.308 15.054 2.053 3.392 7.002 7.672 8.892 7.689.387.004-.425-1.122-1.805-2.503-4.302-4.301-5.4-8.474-5.4-20.524 0-6.103.466-11.968 1.035-13.032 1.394-2.604-.404-2.565-3.035.066m54.655 10.263c-1.488 1.088-1.688 2.786-1.441 12.25L88.5 211.5h79l.286-10.987c.247-9.464.047-11.162-1.441-12.25-2.498-1.827-74.192-1.827-76.69 0" fill="#1976D2" fill-rule="evenodd"/><path fill-opacity=".152" d="M115.994 28.883c-8.18 2.656-15.798 9.981-18.606 17.888l-1.772 4.989-5.368.554c-12.613 1.302-26.471 11.413-32.696 23.854-3.98 7.956-3.818 7.052-7.582 42.332-1.611 15.096-2.747 23.032-2.577 18 .167-4.95.119-7.762-.108-6.25l-.412 2.75-23.686.231-23.687.23 23.327.288c17.927.222 23.232.573 22.917 1.52-.305.916-6.224 1.3-23.133 1.5l-22.723.269.315 45.231c.314 45.08.324 45.251 2.719 51.224 3.248 8.1 11.473 16.328 19.585 19.594L28.5 255.5l96 .302c102.541.323 103.848.27 112.848-4.602 8.889-4.812 17.652-17.49 17.652-25.538 0-1.244.469-2.731 1.042-3.304.701-.701.946-15.757.75-45.95L256.5 131.5l-23.183-.268c-23.092-.267-23.184-.277-23.614-2.5-.237-1.228-.548.243-.692 3.268-.144 3.025-1.26-6.046-2.48-20.158-1.732-20.037-2.7-26.946-4.418-31.54-5.699-15.238-20.275-26.531-36.171-28.023l-5.559-.522-1.771-4.987c-2.092-5.889-8.396-13.086-14.067-16.06-3.284-1.721-6.115-2.169-15.045-2.381-6.05-.143-12.128.106-13.506.554m-1.19 10.158c-3.896 2.057-8.108 6.931-9.255 10.709l-.684 2.25h46.27l-.684-2.25c-1.178-3.879-5.412-8.689-9.469-10.759-5.505-2.808-20.822-2.779-26.178.05M83.505 63.222C71.86 67.317 60.832 82.295 62.379 91.917c1.148 7.138 13.574 22.954 23.51 29.924L92 126.128V89h-2.309c-3.709 0-5.907-2.207-5.527-5.549L84.5 80.5h23V84c0 3.077-.388 3.614-3.212 4.446l-3.212.946-.288 20.425-.288 20.425 2.5.95c13.871 5.274 36.473 5.171 50-.228l2.5-.997-.288-20.288-.288-20.287-3.212-.946c-2.824-.832-3.212-1.369-3.212-4.446v-3.5h23l.336 2.951c.38 3.342-1.818 5.549-5.527 5.549H164v18c0 10.149.397 18 .91 18 2.92 0 18.735-15.344 22.999-22.315 2.028-3.315 2.247-4.591 1.666-9.727-1.008-8.903-3.17-15.123-7.524-21.643-6.756-10.118-5.02-9.784-52.051-10.008-38.893-.185-40.738-.109-46.495 1.915m-23.956 47.971c-1.37 9.987-6.827 71.885-6.907 78.343-.108 8.823 3.313 16.494 9.97 22.353C70.798 219.095 69.9 219 129.643 219h53.287l3.312-2.907c1.821-1.599 4.33-4.947 5.575-7.44 4.602-9.215 4.757-12.6 2.328-50.842-1.234-19.421-2.482-37.119-2.773-39.329l-.529-4.018-7.246 7.018c-3.985 3.86-10.011 8.593-13.391 10.518l-6.147 3.5-.029 8.25c-.029 7.996.042 8.25 2.315 8.25 4.343 0 5.655 2.824 5.655 12.174 0 11.196-.649 11.826-12.174 11.826-11.196 0-11.826-.649-11.826-12.174 0-9.018.984-11.163 5.5-11.982 1.688-.307 2.047-1.279 2.304-6.231.293-5.674.228-5.849-2-5.333-13.202 3.055-17.612 3.685-25.804 3.685-8.341 0-15.46-.983-25.304-3.494l-2.803-.715.303 5.862c.257 4.947.616 5.919 2.304 6.226 4.537.823 5.5 2.951 5.5 12.156 0 11.392-.616 12-12.174 12C84.63 176 84 175.351 84 163.826 84 154.615 85.289 152 89.829 152c2.044 0 2.171-.46 2.171-7.861v-7.861l-6.25-4.042c-8.695-5.624-15.109-11.478-20.773-18.959l-4.837-6.391-.591 4.307m148.646 9.307c.02 1.65.244 2.204.498 1.231.254-.973.237-2.323-.037-3-.274-.677-.481.119-.461 1.769m-160 1c.02 1.65.244 2.204.498 1.231.254-.973.237-2.323-.037-3-.274-.677-.481.119-.461 1.769m173.612 11.247c6.769.174 17.569.173 24-.001 6.431-.174.893-.315-12.307-.315-13.2.001-18.462.143-11.693.316m.499 2c6.494.175 16.844.174 23-.001 6.157-.175.844-.318-11.806-.317-12.65 0-17.687.144-11.194.318m-210.556 1c6.188.175 16.313.175 22.5 0 6.188-.176 1.125-.319-11.25-.319s-17.437.143-11.25.319M.459 180c0 23.925.13 33.713.29 21.75.159-11.962.159-31.537 0-43.5-.16-11.962-.29-2.175-.29 21.75m208.851-36.5c.005 3.3.192 4.529.415 2.732.222-1.797.218-4.497-.01-6-.229-1.503-.411-.032-.405 3.268m-163.024 7c.008 2.75.202 3.756.432 2.236.229-1.52.223-3.77-.014-5-.237-1.23-.425.014-.418 2.764m163.986 6.5c0 2.475.195 3.488.434 2.25.238-1.238.238-3.262 0-4.5-.239-1.238-.434-.225-.434 2.25m-165.04 5c0 1.925.206 2.713.457 1.75.252-.963.252-2.537 0-3.5-.251-.963-.457-.175-.457 1.75M93 163.5c0 3.333.167 3.5 3.5 3.5s3.5-.167 3.5-3.5-.167-3.5-3.5-3.5-3.5.167-3.5 3.5m63 0c0 3.333.167 3.5 3.5 3.5s3.5-.167 3.5-3.5-.167-3.5-3.5-3.5-3.5.167-3.5 3.5m-115.187 3.183c.721.289 1.584.253 1.916-.079.332-.332-.258-.568-1.312-.525-1.165.048-1.402.285-.604.604m172.451.035c1.52.229 3.77.223 5-.014 1.23-.237-.014-.425-2.764-.418-2.75.008-3.756.202-2.236.432m-185.34 5.032L25.5 174.5l2.75-2.424c2.57-2.266 3.209-3.076 2.424-3.076-.179 0-1.416 1.238-2.75 2.75m6.937 6.163c-2.222 1.8-2.359 2.552-2.336 12.75.022 9.197.358 11.465 2.219 14.986 2.647 5.007 7.861 8.439 13.843 9.114l4.424.498-3.459-5.745c-4.47-7.422-5.925-14.18-5.363-24.894l.452-8.622h-3.709c-2.165 0-4.694.797-6.071 1.913m176.954 8.606c.352 11.77-1.119 18.702-5.263 24.809L204.06 215h2.423c8.727 0 13.501-9.021 13.511-25.527.007-10.31-1.354-13.472-5.801-13.475l-2.693-.002.315 10.523M90.25 188.031c-2.13.856-2.25 1.457-2.25 11.237 0 6.703.422 10.754 1.2 11.532 1.722 1.722 75.878 1.722 77.6 0 .778-.778 1.2-4.828 1.2-11.525 0-10.163-.04-10.34-2.565-11.3-3.251-1.236-72.098-1.185-75.185.056M97 199.5v3.5h55v-7H97v3.5" fill="#1976D2" fill-rule="evenodd"/><path fill-opacity=".988" d="M116.803 29.399c-9.21 2.48-16.145 9.056-19.303 18.304-1.235 3.617-1.592 3.857-7.534 5.06-16.382 3.318-28.344 13.199-34.001 28.087-1.524 4.011-2.853 13.996-5.455 40.977-1.892 19.62-3.713 38.036-4.047 40.923l-.607 5.25h-5.28c-5.829 0-10.284 2.332-13.984 7.32-1.739 2.344-2.149 4.571-2.431 13.187-.429 13.101 1.241 19.397 6.831 25.746 6.164 7.004 11.336 9.04 25.008 9.848 6.325.374 13.961 1.404 16.968 2.29 8.174 2.405 103.863 2.411 112.064.006 3.007-.882 10.193-1.936 15.968-2.342 11.838-.832 16.015-2.267 21.793-7.487 6.57-5.936 8.475-11.167 8.946-24.568.37-10.521.207-11.881-1.917-15.977-2.827-5.45-6.956-7.975-14.281-8.731-3.056-.315-5.539-1.07-5.536-1.682.003-.61-1.38-18.435-3.075-39.61-3.299-41.234-4.195-46.164-9.889-54.44-3.792-5.511-10.883-11.929-16.151-14.616-2.371-1.21-8.095-2.965-12.72-3.902-8.302-1.68-8.428-1.75-9.689-5.42-3.277-9.533-11.021-16.5-20.629-18.56-6.456-1.385-15.17-1.245-21.049.337m.197 8.195c-5.6 2.426-12 9.549-12 13.356 0 .703 7.608 1.05 23 1.05s23-.347 23-1.05c0-3.902-6.469-10.995-12.218-13.397-4.805-2.007-17.107-1.984-21.782.041M88.746 61.058c-12.901 3.135-23.874 14.138-26.83 26.905-.678 2.93-.25 4.512 2.78 10.278 3.964 7.544 13.783 18.738 21.234 24.208 2.661 1.953 5.115 3.551 5.454 3.551.339 0 .616-8.521.616-18.937V88.127l-3.149-.314c-3.837-.381-5.844-3.016-4.237-5.563.935-1.482 2.681-1.75 11.386-1.75 8.705 0 10.451.268 11.386 1.75 1.607 2.547-.4 5.182-4.237 5.563l-3.149.314v42.582l7.75 2.395c6.582 2.035 9.71 2.384 20.75 2.316 11.022-.068 14.065-.448 20-2.5l7-2.42.27-21.185.269-21.185-3.168-.315c-3.855-.383-5.867-3.013-4.257-5.565.935-1.482 2.681-1.75 11.386-1.75 8.705 0 10.451.268 11.386 1.75 1.607 2.547-.4 5.182-4.237 5.563l-3.149.314v37.986l3.243-1.806c1.784-.994 6.855-5.417 11.27-9.83 5.851-5.847 9.175-10.227 12.257-16.152 2.327-4.472 4.23-9.037 4.23-10.145 0-7.565-10.342-20.216-20.278-24.806L168.5 60.5l-38-.177c-20.9-.097-39.689.234-41.754.735m104.398 49.008c-4.648 6.76-17.01 18.277-23.629 22.013L164 135.191v8.404c0 7.471.203 8.405 1.826 8.405 1.004 0 2.804 1.042 4 2.314 1.834 1.953 2.174 3.49 2.174 9.826 0 6.559-.294 7.787-2.314 9.686-1.953 1.834-3.49 2.174-9.826 2.174-6.559 0-7.787-.294-9.686-2.314-1.859-1.98-2.174-3.477-2.174-10.345 0-8.694 1.361-11.341 5.829-11.341 2.009 0 2.171-.493 2.171-6.607 0-5.524-.251-6.511-1.532-6.019-14.392 5.523-38.544 5.523-52.936 0-1.281-.492-1.532.495-1.532 6.019 0 6.264.122 6.607 2.345 6.607 4.27 0 5.655 2.854 5.655 11.654 0 7.067-.269 8.25-2.314 10.172-1.953 1.834-3.49 2.174-9.826 2.174-6.559 0-7.787-.294-9.686-2.314-1.834-1.953-2.174-3.49-2.174-9.826 0-6.559.294-7.787 2.314-9.686 1.273-1.196 3.073-2.174 4-2.174 1.447 0 1.683-1.172 1.666-8.25l-.02-8.25-5.181-3c-6.504-3.767-19.848-16.317-23.509-22.112-1.524-2.411-3-4.385-3.281-4.386-.281-.001-1.778 14.285-3.327 31.748s-3.304 36.925-3.9 43.25c-.938 9.957-.86 12.262.584 17.177 2.165 7.372 9.506 15.607 16.884 18.941l5.27 2.382 50.5.319c34.459.217 52.127-.035 55.622-.794 7.021-1.523 13.83-6.091 17.346-11.636 5.393-8.504 5.448-10.446 1.645-58.263-1.893-23.809-3.593-43.435-3.778-43.615-.184-.18-1.845 1.87-3.691 4.555M92 164v4h8v-8h-8v4m64 0v4h8v-8h-8v4M34.073 178.635c-1.775 2.256-2.07 4.016-2.051 12.25.025 11.025 1.713 16.031 6.867 20.368 3.239 2.726 8.731 4.731 12.983 4.741 2.284.006 2.31-.078.717-2.244-.911-1.238-3.103-5.175-4.872-8.75-3.082-6.226-3.212-6.974-3.091-17.75l.126-11.25h-4.304c-3.457 0-4.71.518-6.375 2.635m177.514 6.115c.786 10.43-1.054 19.178-5.573 26.5l-2.931 4.75h2.279c1.254 0 4.723-1.238 7.709-2.75 4.109-2.082 6.037-3.844 7.929-7.25 2.236-4.025 2.5-5.644 2.5-15.337 0-10.181-.143-10.952-2.361-12.75-1.429-1.158-3.909-1.913-6.286-1.913h-3.925l.659 8.75M89.2 189.2c-1.908 1.908-1.605 19.253.371 21.229C90.943 211.8 95.827 212 128 212s37.057-.2 38.429-1.571c1.976-1.976 2.279-19.321.371-21.229-1.722-1.722-75.878-1.722-77.6 0M96 200v4h64v-8H96v4" fill="#1976D2" fill-rule="evenodd"/></svg>