<?xml version="1.0" encoding="UTF-8" standalone="no"?>
<!-- Created with Inkscape (http://www.inkscape.org/) -->

<svg
   xmlns:dc="http://purl.org/dc/elements/1.1/"
   xmlns:cc="http://creativecommons.org/ns#"
   xmlns:rdf="http://www.w3.org/1999/02/22-rdf-syntax-ns#"
   xmlns:svg="http://www.w3.org/2000/svg"
   xmlns="http://www.w3.org/2000/svg"
   xmlns:xlink="http://www.w3.org/1999/xlink"
   xmlns:sodipodi="http://sodipodi.sourceforge.net/DTD/sodipodi-0.dtd"
   xmlns:inkscape="http://www.inkscape.org/namespaces/inkscape"
   width="512"
   height="512"
   viewBox="0 0 135.46666 135.46667"
   version="1.1"
   id="svg8"
   inkscape:version="0.92.5 (2060ec1f9f, 2020-04-08)"
   sodipodi:docname="icon.svg"
   inkscape:export-filename="/home/josep/icon.png"
   inkscape:export-xdpi="192.00002"
   inkscape:export-ydpi="192.00002">
  <defs
     id="defs2">
    <linearGradient
       id="linearGradient4687"
       inkscape:collect="always">
      <stop
         id="stop4691"
         offset="0"
         style="stop-color:#fcc309;stop-opacity:1;" />
      <stop
         id="stop4693"
         offset="1"
         style="stop-color:#fc9309;stop-opacity:1" />
    </linearGradient>
    <linearGradient
       inkscape:collect="always"
       xlink:href="#linearGradient4687"
       id="linearGradient4689"
       x1="69.547623"
       y1="163.49879"
       x2="70.454758"
       y2="295.79047"
       gradientUnits="userSpaceOnUse" />
  </defs>
  <sodipodi:namedview
     id="base"
     pagecolor="#ffffff"
     bordercolor="#666666"
     borderopacity="1.0"
     inkscape:pageopacity="0.0"
     inkscape:pageshadow="2"
     inkscape:zoom="0.35"
     inkscape:cx="-225.71429"
     inkscape:cy="560"
     inkscape:document-units="mm"
     inkscape:current-layer="layer1"
     showgrid="false"
     units="px"
     inkscape:window-width="1920"
     inkscape:window-height="1018"
     inkscape:window-x="0"
     inkscape:window-y="28"
     inkscape:window-maximized="1" />
  <metadata
     id="metadata5">
    <rdf:RDF>
      <cc:Work
         rdf:about="">
        <dc:format>image/svg+xml</dc:format>
        <dc:type
           rdf:resource="http://purl.org/dc/dcmitype/StillImage" />
        <dc:title></dc:title>
      </cc:Work>
    </rdf:RDF>
  </metadata>
  <g
     inkscape:label="Capa 1"
     inkscape:groupmode="layer"
     id="layer1"
     transform="translate(0,-161.53332)">
    <rect
       id="rect29"
       width="135.46666"
       height="135.46666"
       x="0"
       y="161.53333"
       style="stroke-width:0.26788902;fill:url(#linearGradient4689);fill-opacity:1"
       ry="18.898809" />
    <g
       id="g173"
       transform="matrix(0.21438327,0,0,0.21438327,12.85132,174.38454)">
      <g
         id="g89"
         transform="translate(1,1)">
	<g
   id="g35">
		<path
   id="path31"
   d="M 323.923,97.462 H 186.077 c -5.908,0 -9.846,-3.938 -9.846,-9.846 0,-38.4 30.523,-68.923 68.923,-68.923 h 19.692 c 38.4,0 68.923,30.523 68.923,68.923 0,5.907 -3.938,9.846 -9.846,9.846 z M 196.908,77.769 H 313.093 C 308.17,55.123 288.478,38.384 264.847,38.384 h -19.692 c -23.632,10e-4 -43.324,16.739 -48.247,39.385 z"
   style="fill:#ffdd09"
   inkscape:connector-curvature="0" />

		<path
   id="path33"
   d="M 355.431,491.308 H 158.508 c -41.354,0 -74.831,-42.338 -70.892,-91.569 L 106.324,167.37 c 4.923,-51.2 40.369,-89.6 83.692,-89.6 h 132.923 c 43.323,0 78.769,38.4 83.692,88.615 l 15.754,236.308 c 2.953,48.246 -25.6,88.615 -66.954,88.615"
   style="fill:#ffdd09"
   inkscape:connector-curvature="0" />

	</g>

	<g
   id="g41">
		<path
   id="path37"
   d="m 80.723,165.4 c 27.569,69.908 94.523,119.138 174.277,119.138 81.723,0 151.631,-53.169 176.246,-126.031 C 423.369,112.23 383,77.769 334.754,77.769 H 178.2 c -50.215,0 -91.569,37.416 -97.477,87.631"
   style="fill:#fcc309"
   inkscape:connector-curvature="0" />

		<path
   id="path39"
   d="m 432.231,399.738 -3.938,-36.431 h 25.6 c 15.754,0 27.569,12.8 27.569,27.569 v 33.477 c 0,31.508 -25.6,57.108 -57.108,57.108 h -36.431 c 28.554,-15.753 47.262,-47.261 44.308,-81.723"
   style="fill:#fcc309"
   inkscape:connector-curvature="0" />

	</g>

	<path
   id="path43"
   d="m 481.462,424.354 v -33.477 c 0,-15.754 -12.8,-27.569 -27.569,-27.569 h 19.692 c 15.754,0 27.569,12.8 27.569,27.569 v 33.477 c 0,31.508 -25.6,57.108 -57.108,57.108 h -19.692 c 31.508,0 57.108,-25.6 57.108,-57.108"
   style="fill:#fd9808"
   inkscape:connector-curvature="0" />

	<path
   id="path45"
   d="m 77.769,399.738 3.938,-36.431 h -25.6 c -14.769,0 -27.569,12.8 -27.569,27.569 v 33.477 c 0,31.508 25.6,57.108 57.108,57.108 h 36.431 C 93.523,465.708 74.815,434.2 77.769,399.738"
   style="fill:#fcc309"
   inkscape:connector-curvature="0" />

	<g
   id="g51">
		<path
   id="path47"
   d="m 28.538,424.354 v -33.477 c 0,-14.769 12.8,-27.569 27.569,-27.569 H 36.415 c -14.769,0 -27.569,12.8 -27.569,27.569 v 33.477 c 0,31.508 25.6,57.108 57.108,57.108 h 19.692 c -31.508,0 -57.108,-25.6 -57.108,-57.108"
   style="fill:#ffffff"
   inkscape:connector-curvature="0" />

		<path
   id="path49"
   d="m 87.615,399.738 18.708,-232.369 c 3.938,-51.2 40.369,-89.6 83.692,-89.6 H 178.2 c -51.2,0 -93.538,38.4 -98.462,89.6 L 58.077,399.738 c -4.923,49.231 34.462,91.569 83.692,91.569 h 16.738 c -42.338,10e-4 -74.83,-42.338 -70.892,-91.569"
   style="fill:#ffffff"
   inkscape:connector-curvature="0" />

	</g>

	<path
   id="path53"
   d="M 451.923,402.692 432.231,166.384 C 427.308,116.169 384.969,77.769 334.754,77.769 h -11.815 c 43.323,0 78.769,38.4 83.692,88.615 l 15.754,236.308 c 2.954,48.246 -25.6,88.615 -66.954,88.615 h 17.723 c 48.246,10e-4 81.723,-40.368 78.769,-88.615"
   style="fill:#fd9808"
   inkscape:connector-curvature="0" />

	<path
   id="path55"
   d="m 314.077,451.923 h 29.538 v -39.385 h -29.538 z"
   style="fill:#33a9f8"
   inkscape:connector-curvature="0" />

	<path
   id="path57"
   d="M 166.385,451.923 H 314.077 V 412.538 H 166.385 Z"
   style="fill:#54c9fd"
   inkscape:connector-curvature="0" />

	<g
   id="g63">
		<path
   id="path59"
   d="m 156.538,363.308 h 39.385 v -39.385 h -39.385 z"
   style="fill:#fcc309"
   inkscape:connector-curvature="0" />

		<path
   id="path61"
   d="m 314.077,363.308 h 39.385 v -39.385 h -39.385 z"
   style="fill:#fcc309"
   inkscape:connector-curvature="0" />

	</g>

	<path
   id="path65"
   d="M 373.154,501.154 H 141.769 c -26.585,0 -51.2,-10.831 -68.923,-30.523 C 55.123,450.939 46.261,424.354 48.231,398.754 L 70.877,166.385 c 4.923,-56.123 51.2,-98.462 108.308,-98.462 h 156.554 c 56.123,0 102.4,41.354 107.323,97.477 l 18.708,236.308 c 1.969,27.569 -6.892,53.169 -23.631,71.877 -16.739,17.723 -40.37,27.569 -64.985,27.569 z M 178.2,87.615 c -46.277,0 -83.692,34.462 -88.615,79.754 L 67.923,400.723 c -1.969,20.677 4.923,41.354 19.692,56.123 13.785,15.754 34.462,24.615 55.138,24.615 h 230.4 c 19.692,0 37.415,-7.877 50.215,-20.677 13.785,-14.769 20.677,-34.462 18.708,-57.108 L 423.368,167.368 C 418.445,122.076 381.03,87.614 334.753,87.614 Z"
   inkscape:connector-curvature="0" />

	<path
   id="path67"
   d="M 323.923,87.615 H 186.077 c -5.908,0 -9.846,-3.938 -9.846,-9.846 0,-38.4 30.523,-68.923 68.923,-68.923 h 19.692 c 38.4,0 68.923,30.523 68.923,68.923 0,5.908 -3.938,9.846 -9.846,9.846 z M 196.908,67.923 H 313.093 C 308.17,45.277 288.478,28.538 264.847,28.538 h -19.692 c -23.632,0 -43.324,16.739 -48.247,39.385 z"
   inkscape:connector-curvature="0" />

	<path
   id="path69"
   d="m 255,294.385 c -81.723,0 -153.6,-49.231 -183.138,-125.046 -0.985,-1.969 -0.985,-2.954 -0.985,-4.923 5.908,-55.138 52.185,-96.492 107.323,-96.492 h 156.554 c 52.185,0 97.477,37.415 106.338,88.615 0,1.969 0,2.954 0,4.923 C 413.523,241.215 338.692,294.385 255,294.385 Z M 90.569,164.415 c 27.569,66.954 91.569,110.277 164.431,110.277 74.831,0 140.8,-47.262 166.4,-117.169 -8.862,-40.369 -44.308,-69.908 -86.646,-69.908 H 178.2 c -44.308,0 -81.723,32.493 -87.631,76.8 z"
   inkscape:connector-curvature="0" />

	<path
   id="path71"
   d="m 176.231,333.769 c -5.908,0 -9.846,-3.938 -9.846,-9.846 V 146.692 c 0,-5.908 3.938,-9.846 9.846,-9.846 5.908,0 9.846,3.938 9.846,9.846 v 177.231 c 0,5.908 -3.939,9.846 -9.846,9.846 z"
   inkscape:connector-curvature="0" />

	<path
   id="path73"
   d="m 333.769,333.769 c -5.908,0 -9.846,-3.938 -9.846,-9.846 V 146.692 c 0,-5.908 3.938,-9.846 9.846,-9.846 5.908,0 9.846,3.938 9.846,9.846 v 177.231 c 0,5.908 -3.938,9.846 -9.846,9.846 z"
   inkscape:connector-curvature="0" />

	<path
   id="path75"
   d="m 195.923,156.538 h -39.385 c -5.908,0 -9.846,-3.938 -9.846,-9.846 0,-5.908 3.938,-9.846 9.846,-9.846 h 39.385 c 5.908,0 9.846,3.938 9.846,9.846 0,5.908 -3.938,9.846 -9.846,9.846 z"
   inkscape:connector-curvature="0" />

	<path
   id="path77"
   d="m 353.462,156.538 h -39.385 c -5.908,0 -9.846,-3.938 -9.846,-9.846 0,-5.908 3.938,-9.846 9.846,-9.846 h 39.385 c 5.908,0 9.846,3.938 9.846,9.846 0,5.908 -3.939,9.846 -9.846,9.846 z"
   inkscape:connector-curvature="0" />

	<path
   id="path79"
   d="m 343.615,461.769 h -177.23 c -5.908,0 -9.846,-3.938 -9.846,-9.846 v -39.385 c 0,-5.908 3.938,-9.846 9.846,-9.846 h 177.231 c 5.908,0 9.846,3.938 9.846,9.846 v 39.385 c 0,5.908 -3.939,9.846 -9.847,9.846 z M 176.231,442.077 H 333.769 V 422.385 H 176.231 Z"
   inkscape:connector-curvature="0" />

	<path
   id="path81"
   d="M 102.385,491.308 H 65.954 C 28.538,491.308 -1,461.769 -1,424.354 V 390.877 C -1,370.2 15.738,353.462 36.415,353.462 h 25.6 c 2.954,0 5.908,0.985 6.892,2.954 1.969,1.969 2.954,4.923 2.954,7.877 l -3.938,36.431 c -2.954,29.538 12.8,58.092 39.385,72.862 3.938,1.969 5.908,6.892 4.923,10.831 -0.985,3.937 -4.923,6.891 -9.846,6.891 z M 36.415,373.154 c -9.846,0 -17.723,7.877 -17.723,17.723 v 33.477 c 0,26.585 20.677,47.262 47.262,47.262 h 7.877 C 55.123,451.924 46.262,426.324 48.231,398.754 v 0 l 2.954,-25.6 z"
   inkscape:connector-curvature="0" />

	<path
   id="path83"
   d="m 444.046,491.308 h -31.508 c -4.923,0 -8.862,-2.954 -9.846,-7.877 -0.985,-3.938 0.985,-8.862 4.923,-10.831 24.615,-12.8 37.415,-40.369 34.462,-72.862 v 0 l -2.954,-36.431 c 0,-2.954 0.985,-5.908 2.954,-7.877 1.969,-1.969 4.923,-2.954 6.892,-2.954 h 24.615 c 20.677,0 37.415,16.738 37.415,37.415 v 33.477 c 10e-4,38.401 -29.537,67.94 -66.953,67.94 z m -3.938,-19.693 h 3.938 c 25.6,0 47.262,-20.677 47.262,-47.262 v -33.477 c 0,-9.846 -7.877,-17.723 -17.723,-17.723 H 459.8 l 1.969,25.6 c 1.969,28.555 -5.907,54.155 -21.661,72.862 z"
   inkscape:connector-curvature="0" />

	<path
   id="path85"
   d="m 195.923,373.154 h -39.385 l -9.846,-9.846 v -39.385 l 9.846,-9.846 h 39.385 l 9.846,9.846 v 39.385 z m -29.538,-19.692 h 19.692 V 333.77 h -19.692 z"
   inkscape:connector-curvature="0" />

	<path
   id="path87"
   d="m 353.462,373.154 h -39.385 l -9.846,-9.846 v -39.385 l 9.846,-9.846 h 39.385 l 9.846,9.846 v 39.385 z m -29.539,-19.692 h 19.692 V 333.77 h -19.692 z"
   inkscape:connector-curvature="0" />

</g>
      <g
         id="g91">
</g>
      <g
         id="g93">
</g>
      <g
         id="g95">
</g>
      <g
         id="g97">
</g>
      <g
         id="g99">
</g>
      <g
         id="g101">
</g>
      <g
         id="g103">
</g>
      <g
         id="g105">
</g>
      <g
         id="g107">
</g>
      <g
         id="g109">
</g>
      <g
         id="g111">
</g>
      <g
         id="g113">
</g>
      <g
         id="g115">
</g>
      <g
         id="g117">
</g>
      <g
         id="g119">
</g>
    </g>
  </g>
</svg>
